# xmcd
#
# Track frame offsets: 
#        150
#        19543
#        31740
#        41840
#        55406
#        69514
#        81177
#        93758
#        106765
#        119347
#        131037
#        145163
#        161760
#        178831
#        197799
#
# Disc length: 2826 seconds
#
# Revision: 1
# Processed by: cddbd v1.5.2PL0 Copyright (c) Steve Scherf et al.
# Submitted via: ExactAudioCopy v0.95b3
#
DISCID=ca0b080f
DTITLE=Various Artist - Classic Country Road Songs - Disc 2
DYEAR=2003
DGENRE=Country
TTITLE0=Alabama - Roll On Eighteen Wheeler
TTITLE1=John Anderson - Chicken Truck
TTITLE2=Charley Pride - Is Anybody Goin' To San Antone
TTITLE3=Oak Ridge Boys - Leaving Louisiana In The Broad Daylight
TTITLE4=Don Williams - Tulsa Time
TTITLE5=Marty Robbins - Ribbon Of Darkness
TTITLE6=Hank Snow - I've Been Everywhere
TTITLE7=Willie Nelson - Me and Paul
TTITLE8=Waylon Jennings - I'm A Ramblin' Man
TTITLE9=Steve Earl - Guitar Town
TTITLE10=David Allen Cole - The Ride
TTITLE11=Alan Jackson - Mercury Blues
TTITLE12=Restless Heart - Wheels
TTITLE13=Ronnie Milsap - Prisoner Of The Highway
TTITLE14=Ricky Scaggs - Highway 40 Blues
EXTD=YEAR: 2003 ID3G: 2
EXTT0=
EXTT1=
EXTT2=
EXTT3=
EXTT4=
EXTT5=
EXTT6=
EXTT7=
EXTT8=
EXTT9=
EXTT10=
EXTT11=
EXTT12=
EXTT13=
EXTT14=
PLAYORDER=
